<svg width="140" height="20" viewBox="0 0 140 20" fill="none" xmlns="http://www.w3.org/2000/svg">
<path d="M12.6465 1.15332H14.8804L8.44727 19H6.39648L0 1.15332H2.19727L6.29883 12.7012C6.77083 14.0277 7.14518 15.3175 7.42188 16.5708C7.71484 15.2524 8.09733 13.9382 8.56934 12.6279L12.6465 1.15332ZM31.2949 19H21.3462V1.15332H31.2949V2.99658H23.4214V8.74609H30.8188V10.5771H23.4214V17.1445H31.2949V19ZM39.2622 19V1.15332H41.3374V17.1201H49.2109V19H39.2622ZM71.7412 10.0522C71.7412 12.9087 71.0169 15.1548 69.5684 16.7905C68.1279 18.4263 66.1219 19.2441 63.5503 19.2441C60.9217 19.2441 58.8913 18.4425 57.459 16.8394C56.0348 15.228 55.3228 12.9575 55.3228 10.0278C55.3228 7.12256 56.0389 4.8724 57.4712 3.27734C58.9035 1.67415 60.938 0.872559 63.5747 0.872559C66.1382 0.872559 68.1401 1.68636 69.5806 3.31396C71.021 4.94157 71.7412 7.18766 71.7412 10.0522ZM57.52 10.0522C57.52 12.4692 58.0327 14.3044 59.0581 15.5576C60.0916 16.8027 61.589 17.4253 63.5503 17.4253C65.5278 17.4253 67.0212 16.8027 68.0303 15.5576C69.0394 14.3125 69.5439 12.4774 69.5439 10.0522C69.5439 7.65153 69.0394 5.83268 68.0303 4.5957C67.0293 3.35059 65.5441 2.72803 63.5747 2.72803C61.5972 2.72803 60.0916 3.35465 59.0581 4.60791C58.0327 5.85303 57.52 7.66781 57.52 10.0522ZM87.3745 2.75244C85.4132 2.75244 83.863 3.40755 82.7236 4.71777C81.5924 6.01986 81.0269 7.80615 81.0269 10.0767C81.0269 12.4123 81.5721 14.2189 82.6626 15.4966C83.7612 16.7661 85.3237 17.4009 87.3501 17.4009C88.5952 17.4009 90.0153 17.1771 91.6104 16.7295V18.5483C90.3734 19.0122 88.8475 19.2441 87.0327 19.2441C84.4041 19.2441 82.3737 18.4466 80.9414 16.8516C79.5173 15.2565 78.8052 12.9901 78.8052 10.0522C78.8052 8.21305 79.147 6.60173 79.8306 5.21826C80.5223 3.8348 81.5151 2.76872 82.8091 2.02002C84.1112 1.27132 85.6411 0.896973 87.3989 0.896973C89.2707 0.896973 90.9064 1.23877 92.3062 1.92236L91.4272 3.70459C90.0763 3.06982 88.7254 2.75244 87.3745 2.75244ZM99.5044 19V1.15332H101.58V19H99.5044ZM115.98 19H113.905V2.99658H108.253V1.15332H121.632V2.99658H115.98V19ZM132.871 10.0767L137.631 1.15332H139.877L133.92 12.0786V19H131.821V12.1763L125.876 1.15332H128.146L132.871 10.0767Z" fill="#69B9FF"/>
</svg>
